<svg width="216" height="216" viewBox="0 0 216 216" fill="none" xmlns="http://www.w3.org/2000/svg" xmlns:xlink="http://www.w3.org/1999/xlink">
    <path d="M175.47 0.530762H40.5312C18.4399 0.530762 0.53125 18.4394 0.53125 40.5308V175.469C0.53125 197.561 18.4399 215.469 40.5313 215.469H175.47C197.561 215.469 215.47 197.561 215.47 175.469V40.5308C215.47 18.4394 197.561 0.530762 175.47 0.530762Z" fill="white"/>
    <path d="M40.5312 4.53076H175.47C195.352 4.53076 211.47 20.6485 211.47 40.5308V175.469C211.47 195.352 195.352 211.469 175.47 211.469H40.5313C20.649 211.469 4.53125 195.352 4.53125 175.469V40.5308C4.53125 20.6485 20.649 4.53076 40.5312 4.53076Z" stroke="#222828" stroke-width="8"/>
    <g transform="translate(25.000000,145.000000) scale(0.033, -0.033)"
       fill="#222828" stroke="none">
        <path d="M783 2443 c-35 -214 -119 -741 -188 -1173 -69 -432 -132 -825 -140
-874 -8 -49 -15 -96 -15 -103 0 -11 35 -13 183 -11 l182 3 3 30 c7 65 63 418
68 426 6 11 465 11 481 1 6 -4 25 -104 42 -222 17 -118 33 -221 36 -227 3 -10
52 -13 198 -13 107 0 196 2 199 5 3 3 -3 54 -13 113 -20 125 -75 465 -119 737
-40 250 -95 593 -125 780 -14 83 -49 310 -80 505 -30 195 -58 367 -61 383 l-6
27 -291 0 -292 0 -62 -387z m347 -139 c9 -54 22 -140 95 -634 47 -318 75 -501
81 -540 l7 -40 -192 0 -191 0 0 33 c0 17 7 73 15 122 8 50 37 243 65 430 27
187 59 396 69 465 11 69 23 149 26 178 4 29 9 51 11 49 3 -2 9 -31 14 -63z"/>
        <path d="M2027 1563 c2 -698 3 -1271 3 -1275 0 -5 88 -8 195 -8 l195 0 0 521
0 521 123 -4 c141 -4 190 -22 231 -86 44 -67 48 -107 51 -477 2 -302 4 -359
20 -412 l18 -63 198 0 c153 0 199 3 199 13 0 6 -7 37 -16 67 -12 43 -17 140
-24 435 -8 407 -14 454 -65 555 -34 67 -73 109 -134 145 -28 17 -51 33 -51 36
0 3 23 21 51 39 72 46 130 130 165 237 29 88 29 88 29 343 0 215 -3 265 -19
320 -40 146 -122 247 -244 302 -111 50 -178 57 -572 58 l-355 0 2 -1267z m703
880 c20 -12 47 -41 60 -65 24 -42 25 -50 28 -267 4 -245 -3 -294 -45 -350 -43
-56 -100 -75 -233 -75 l-115 -1 -3 393 -2 394 137 -4 c121 -3 142 -6 173 -25z"/>
        <path d="M3380 2650 l0 -180 210 0 210 0 0 -1095 0 -1095 200 0 200 0 0 1095
0 1095 208 2 207 3 3 178 2 177 -620 0 -620 0 0 -180z"/>
    </g>

    <path d="M59.0856 160.688C58.9361 160.538 58.6581 160.335 58.2522 160.079C57.8675 159.822 57.3867 159.577 56.8097 159.341C56.2539 159.106 55.6449 158.903 54.9825 158.732C54.3202 158.54 53.647 158.444 52.9631 158.444C51.7662 158.444 50.8582 158.668 50.2384 159.117C49.6401 159.566 49.3408 160.196 49.3408 161.008C49.3408 161.628 49.5331 162.119 49.9178 162.483C50.3025 162.846 50.8795 163.156 51.6488 163.412C52.4181 163.669 53.3798 163.947 54.5338 164.246C56.0296 164.609 57.3226 165.058 58.4124 165.592C59.5236 166.105 60.3678 166.789 60.9448 167.644C61.5431 168.477 61.8424 169.588 61.8424 170.977C61.8424 172.196 61.618 173.243 61.1692 174.119C60.7204 174.974 60.1006 175.668 59.31 176.202C58.5194 176.737 57.6219 177.132 56.6173 177.389C55.6128 177.624 54.5446 177.741 53.4118 177.741C52.2791 177.741 51.1467 177.624 50.014 177.389C48.8812 177.153 47.7914 176.822 46.7443 176.395C45.6973 175.946 44.7357 175.412 43.8594 174.792L45.8147 170.977C46.0071 171.17 46.3489 171.426 46.8405 171.747C47.3321 172.046 47.9304 172.356 48.6356 172.676C49.3408 172.976 50.1101 173.232 50.9436 173.446C51.777 173.659 52.6212 173.766 53.4759 173.766C54.6728 173.766 55.5808 173.563 56.2006 173.157C56.8205 172.751 57.1302 172.174 57.1302 171.426C57.1302 170.742 56.8846 170.208 56.393 169.823C55.9013 169.439 55.2177 169.107 54.3414 168.83C53.4651 168.53 52.4289 168.21 51.2321 167.868C49.8004 167.462 48.6035 167.013 47.6419 166.522C46.6802 166.009 45.9642 165.368 45.4942 164.598C45.0242 163.829 44.789 162.867 44.789 161.713C44.789 160.154 45.1524 158.85 45.8789 157.803C46.6269 156.734 47.6311 155.933 48.892 155.399C50.153 154.843 51.5526 154.565 53.0913 154.565C54.1599 154.565 55.1641 154.683 56.1045 154.918C57.0661 155.153 57.9637 155.463 58.7971 155.847C59.6305 156.232 60.3786 156.649 61.041 157.098L59.0856 160.688Z" fill="#65BFB7"/>
    <path d="M87.0179 177.645C85.351 177.645 83.8336 177.324 82.466 176.683C81.1197 176.021 79.9549 175.145 78.972 174.055C78.0103 172.965 77.2623 171.736 76.7281 170.368C76.194 168.979 75.9268 167.558 75.9268 166.105C75.9268 164.588 76.2045 163.145 76.7602 161.778C77.3372 160.388 78.1173 159.16 79.1002 158.091C80.1047 157.001 81.28 156.147 82.6263 155.527C83.9939 154.886 85.49 154.565 87.114 154.565C88.7596 154.565 90.2554 154.897 91.6018 155.559C92.9693 156.221 94.1341 157.108 95.0958 158.219C96.0574 159.331 96.8055 160.57 97.3396 161.938C97.8738 163.305 98.141 164.716 98.141 166.169C98.141 167.665 97.8633 169.107 97.3076 170.497C96.7518 171.864 95.9721 173.093 94.9676 174.183C93.9846 175.252 92.8091 176.095 91.4415 176.715C90.0952 177.335 88.6206 177.645 87.0179 177.645ZM87.0499 173.734C88.1185 173.734 89.0694 173.521 89.9028 173.093C90.7363 172.644 91.4307 172.057 91.9864 171.33C92.5422 170.582 92.9589 169.759 93.2366 168.862C93.5359 167.943 93.6853 167.024 93.6853 166.105C93.6853 165.122 93.5251 164.171 93.2045 163.252C92.9052 162.333 92.4672 161.521 91.8903 160.816C91.3345 160.111 90.6401 159.545 89.8067 159.117C88.9945 158.69 88.0757 158.476 87.0499 158.476C85.96 158.476 84.9984 158.7 84.1649 159.149C83.3528 159.577 82.6691 160.164 82.1134 160.912C81.5577 161.639 81.1305 162.451 80.8312 163.348C80.5535 164.246 80.4145 165.165 80.4145 166.105C80.4145 167.088 80.564 168.039 80.8633 168.958C81.1626 169.877 81.5897 170.689 82.1455 171.394C82.7225 172.099 83.4169 172.666 84.2291 173.093C85.0625 173.521 86.0029 173.734 87.0499 173.734ZM86.6011 169.054H90.7683L98.2692 177.485H94.1021L86.6011 169.054Z" fill="#E66292"/>
    <path d="M116.471 177.485V154.726H126.536C127.583 154.726 128.545 154.939 129.421 155.367C130.319 155.794 131.088 156.371 131.729 157.098C132.391 157.824 132.894 158.636 133.236 159.534C133.599 160.431 133.781 161.35 133.781 162.291C133.781 163.252 133.609 164.182 133.268 165.079C132.947 165.956 132.477 166.725 131.857 167.387C131.237 168.05 130.511 168.563 129.677 168.926L134.87 177.485H129.998L125.318 169.856H120.894V177.485H116.471ZM120.894 165.977H126.44C126.996 165.977 127.487 165.817 127.914 165.496C128.342 165.154 128.684 164.706 128.94 164.15C129.197 163.594 129.325 162.975 129.325 162.291C129.325 161.564 129.175 160.934 128.876 160.399C128.577 159.844 128.192 159.406 127.722 159.085C127.273 158.765 126.782 158.604 126.248 158.604H120.894V165.977Z" fill="#6E81E1"/>
    <path d="M150.938 177.485V154.726H159.208C161.687 154.726 163.76 155.238 165.426 156.264C167.093 157.269 168.343 158.636 169.177 160.367C170.01 162.077 170.427 163.979 170.427 166.073C170.427 168.381 169.968 170.39 169.049 172.1C168.13 173.809 166.826 175.134 165.138 176.074C163.471 177.015 161.494 177.485 159.208 177.485H150.938ZM165.971 166.073C165.971 164.599 165.704 163.306 165.17 162.194C164.636 161.062 163.867 160.186 162.862 159.566C161.858 158.925 160.639 158.604 159.208 158.604H155.361V173.606H159.208C160.661 173.606 161.89 173.286 162.894 172.644C163.899 171.982 164.657 171.085 165.17 169.952C165.704 168.798 165.971 167.505 165.971 166.073Z" fill="#F5A566"/>
</svg>
