<?xml version="1.0" standalone="no"?>
<!DOCTYPE svg PUBLIC "-//W3C//DTD SVG 20010904//EN"
 "http://www.w3.org/TR/2001/REC-SVG-20010904/DTD/svg10.dtd">
<svg version="1.0" xmlns="http://www.w3.org/2000/svg"
 width="500.000000pt" height="345.000000pt" viewBox="0 0 500.000000 345.000000"
 preserveAspectRatio="xMidYMid meet">

<g transform="translate(0.000000,345.000000) scale(0.100000,-0.100000)"
fill="#000000" stroke="none">
<path d="M783 2443 c-35 -214 -119 -741 -188 -1173 -69 -432 -132 -825 -140
-874 -8 -49 -15 -96 -15 -103 0 -11 35 -13 183 -11 l182 3 3 30 c7 65 63 418
68 426 6 11 465 11 481 1 6 -4 25 -104 42 -222 17 -118 33 -221 36 -227 3 -10
52 -13 198 -13 107 0 196 2 199 5 3 3 -3 54 -13 113 -20 125 -75 465 -119 737
-40 250 -95 593 -125 780 -14 83 -49 310 -80 505 -30 195 -58 367 -61 383 l-6
27 -291 0 -292 0 -62 -387z m347 -139 c9 -54 22 -140 95 -634 47 -318 75 -501
81 -540 l7 -40 -192 0 -191 0 0 33 c0 17 7 73 15 122 8 50 37 243 65 430 27
187 59 396 69 465 11 69 23 149 26 178 4 29 9 51 11 49 3 -2 9 -31 14 -63z"/>
<path d="M2027 1563 c2 -698 3 -1271 3 -1275 0 -5 88 -8 195 -8 l195 0 0 521
0 521 123 -4 c141 -4 190 -22 231 -86 44 -67 48 -107 51 -477 2 -302 4 -359
20 -412 l18 -63 198 0 c153 0 199 3 199 13 0 6 -7 37 -16 67 -12 43 -17 140
-24 435 -8 407 -14 454 -65 555 -34 67 -73 109 -134 145 -28 17 -51 33 -51 36
0 3 23 21 51 39 72 46 130 130 165 237 29 88 29 88 29 343 0 215 -3 265 -19
320 -40 146 -122 247 -244 302 -111 50 -178 57 -572 58 l-355 0 2 -1267z m703
880 c20 -12 47 -41 60 -65 24 -42 25 -50 28 -267 4 -245 -3 -294 -45 -350 -43
-56 -100 -75 -233 -75 l-115 -1 -3 393 -2 394 137 -4 c121 -3 142 -6 173 -25z"/>
<path d="M3380 2650 l0 -180 210 0 210 0 0 -1095 0 -1095 200 0 200 0 0 1095
0 1095 208 2 207 3 3 178 2 177 -620 0 -620 0 0 -180z"/>
</g>
</svg>
